<svg id="Layer_1" data-name="Layer 1" xmlns="http://www.w3.org/2000/svg" viewBox="0 0 283.79 238.58"><defs><style>.cls-1{font-size:50px;font-family:OpenSansHebrew-Bold, Open Sans Hebrew;font-weight:700;}.cls-1,.cls-2{fill:#39b8d9;}</style></defs><text class="cls-1" transform="translate(13.27 219.46)">ןמויל הפסוה</text><rect class="cls-2" x="88.33" y="9.15" width="7.7" height="39.65" rx="3.52"/><rect class="cls-2" x="122.8" y="9.15" width="7.7" height="39.65" rx="3.52"/><rect class="cls-2" x="157.26" y="9.15" width="7.7" height="39.65" rx="3.52"/><rect class="cls-2" x="191.58" y="9.15" width="7.7" height="39.65" rx="3.52"/><path class="cls-2" d="M214.83,21.3H201.1V45.47a5.66,5.66,0,1,1-11.32,0V21.3H166.73V45.47a5.66,5.66,0,0,1-11.31,0V21.3h-23V45.47a5.67,5.67,0,0,1-11.33,0V21.3H98V45.47a5.66,5.66,0,0,1-11.31,0V21.3h-13A17.1,17.1,0,0,0,56.6,38.39h0V142.25a17.09,17.09,0,0,0,17.09,17.09H214.83a17.09,17.09,0,0,0,17.1-17.08h0V38.39A17.09,17.09,0,0,0,214.84,21.3ZM225,138.64a13.77,13.77,0,0,1-13.77,13.76H77.83a13.77,13.77,0,0,1-13.77-13.76h0V74.14A13.77,13.77,0,0,1,77.83,60.38H211.22A13.77,13.77,0,0,1,225,74.14Z"/><rect class="cls-2" x="70.89" y="93.8" width="25.19" height="23.39" rx="4.48"/><rect class="cls-2" x="101.4" y="93.8" width="25.19" height="23.39" rx="4.48"/><rect class="cls-2" x="131.9" y="93.8" width="25.19" height="23.39" rx="4.48"/><rect class="cls-2" x="162.41" y="93.8" width="25.19" height="23.39" rx="4.48"/><rect class="cls-2" x="192.91" y="93.8" width="25.19" height="23.39" rx="4.48"/><rect class="cls-2" x="70.97" y="122.84" width="25.19" height="23.39" rx="4.48"/><rect class="cls-2" x="101.48" y="122.84" width="25.19" height="23.39" rx="4.48"/><rect class="cls-2" x="131.98" y="122.84" width="25.19" height="23.39" rx="4.48"/><rect class="cls-2" x="162.48" y="122.84" width="25.19" height="23.39" rx="4.48"/><rect class="cls-2" x="192.99" y="122.84" width="25.19" height="23.39" rx="4.48"/><rect class="cls-2" x="101.22" y="66.54" width="25.19" height="23.39" rx="4.48"/><rect class="cls-2" x="131.72" y="66.54" width="25.19" height="23.39" rx="4.48"/><rect class="cls-2" x="162.22" y="66.54" width="25.19" height="23.39" rx="4.48"/><rect class="cls-2" x="192.73" y="66.54" width="25.19" height="23.39" rx="4.48"/></svg>