<svg id="Layer_1" data-name="Layer 1" xmlns="http://www.w3.org/2000/svg" xmlns:xlink="http://www.w3.org/1999/xlink" viewBox="0 0 1012.14 546.57"><defs><style>.cls-1{fill:url(#linear-gradient);}.cls-2,.cls-4,.cls-5,.cls-6{fill:#fff;}.cls-2,.cls-3,.cls-5{opacity:0.8;}.cls-5{font-size:63.08px;font-family:Rubik-Bold, Rubik;font-weight:700;}.cls-6{font-size:150px;font-family:VarelaRound-Regular, Varela Round;opacity:0.8;}</style><linearGradient id="linear-gradient" x1="-112.44" y1="70.61" x2="1086.34" y2="463.43" gradientUnits="userSpaceOnUse"><stop offset="0" stop-color="#1d6c9e"/><stop offset="1" stop-color="#39b9da"/></linearGradient></defs><rect class="cls-1" width="1012.14" height="546.57" rx="34.08"/><rect class="cls-2" x="22.62" y="265.46" width="193.74" height="126.25" rx="20.97" transform="translate(-209.1 448.08) rotate(-90)"/><rect class="cls-2" x="162.74" y="265.46" width="193.74" height="126.25" rx="20.97" transform="translate(-68.98 588.2) rotate(-90)"/><rect class="cls-2" x="334.74" y="265.46" width="193.74" height="126.25" rx="20.97" transform="translate(103.02 760.2) rotate(-90)"/><rect class="cls-2" x="474.86" y="265.46" width="193.74" height="126.25" rx="20.97" transform="translate(243.14 900.32) rotate(-90)"/><rect class="cls-2" x="645.5" y="265.46" width="193.74" height="126.25" rx="20.97" transform="translate(413.79 1070.96) rotate(-90)"/><rect class="cls-2" x="784.8" y="264.7" width="193.74" height="126.25" rx="20.97" transform="translate(553.85 1209.49) rotate(-90)"/><g class="cls-3"><path class="cls-4" d="M879.77,464.67a.88.88,0,0,1-.26-.64V444.24a.9.9,0,0,1,.26-.67.93.93,0,0,1,.65-.24h7.87q5,0,7.45,2.23t2.46,7V464a.92.92,0,0,1-.26.66.89.89,0,0,1-.68.29H880.42A.88.88,0,0,1,879.77,464.67Zm13.74-3.78v-8.14q0-5.37-5.41-5.37h-4.16v13.51Z"/><path class="cls-4" d="M903.2,455.82a.87.87,0,0,1-.26-.65V444.24a.87.87,0,0,1,.26-.67.93.93,0,0,1,.64-.24h3.22a.9.9,0,0,1,.91.91v10.93a.9.9,0,0,1-.91.91h-3.22A.9.9,0,0,1,903.2,455.82Z"/><path class="cls-4" d="M930.26,445.73a9.39,9.39,0,0,1,2.35,6.83V464a.92.92,0,0,1-.25.64.84.84,0,0,1-.66.27h-10a.92.92,0,0,1-.91-.91V461.8a.87.87,0,0,1,.27-.67.91.91,0,0,1,.64-.24h6.09v-8.06a5.85,5.85,0,0,0-1.21-3.88,3.83,3.83,0,0,0-3.06-1.46H920l-3.1,16.5a1.09,1.09,0,0,1-.32.66.92.92,0,0,1-.67.29h-3a.82.82,0,0,1-.66-.29.75.75,0,0,1-.17-.66l3.37-16.46h-2.23a.88.88,0,0,1-.65-.27.84.84,0,0,1-.26-.64v-2.38a.87.87,0,0,1,.26-.67.93.93,0,0,1,.65-.24h10.82A8.19,8.19,0,0,1,930.26,445.73Z"/><path class="cls-4" d="M937.64,455.82a.87.87,0,0,1-.26-.65V444.24a.87.87,0,0,1,.26-.67.93.93,0,0,1,.64-.24h3.22a.9.9,0,0,1,.91.91v10.93a.9.9,0,0,1-.91.91h-3.22A.9.9,0,0,1,937.64,455.82Z"/></g><g class="cls-3"><path class="cls-4" d="M568,445.62c1.66,1.52,2.49,3.84,2.49,6.94V464a.91.91,0,0,1-.24.64.87.87,0,0,1-.66.27h-3a.92.92,0,0,1-.91-.91V452.75q0-5.37-5.41-5.37h-2.58a30.08,30.08,0,0,0-.53,3.18,28.72,28.72,0,0,0-.11,3.33l.19,10.14a.87.87,0,0,1-.25.64.84.84,0,0,1-.66.27l-6.66,0a.9.9,0,0,1-.91-.91v-2.08a.84.84,0,0,1,.27-.66.87.87,0,0,1,.64-.25l3,0v-7a33,33,0,0,1,.1-3.43,21.28,21.28,0,0,1,.54-3.19h-2.15a.9.9,0,0,1-.91-.91v-2.23a.9.9,0,0,1,.26-.67.93.93,0,0,1,.65-.24h9.35Q565.53,443.33,568,445.62Z"/><path class="cls-4" d="M575.78,464.67a.88.88,0,0,1-.26-.64V444.24a.9.9,0,0,1,.26-.67,1,1,0,0,1,.65-.24h3.22a.9.9,0,0,1,.64.26.87.87,0,0,1,.26.65V464a.84.84,0,0,1-.26.64.87.87,0,0,1-.64.27h-3.22A.89.89,0,0,1,575.78,464.67Z"/><path class="cls-4" d="M603.43,443.57a.9.9,0,0,1,.25.67v10.82a8.61,8.61,0,0,1-2.4,6.11,12.77,12.77,0,0,1-6.61,3.54l-9,2.35a.81.81,0,0,1-.72-.12.73.73,0,0,1-.34-.64v-2.23a1,1,0,0,1,.72-1.06l4.58-1.33-4.69-16.84a4.35,4.35,0,0,1-.19-.76.75.75,0,0,1,.75-.75h3.33a.88.88,0,0,1,.57.17.82.82,0,0,1,.31.39l4.27,16.51a6.34,6.34,0,0,0,3.54-2.54,8.17,8.17,0,0,0,1-4.24v-9.38a.87.87,0,0,1,.26-.65.94.94,0,0,1,.68-.26h3A.89.89,0,0,1,603.43,443.57Z"/><path class="cls-4" d="M631.63,443.57a.94.94,0,0,1,.25.67v10.21a11.31,11.31,0,0,1-1.42,5.72,9.69,9.69,0,0,1-3.9,3.77,11.55,11.55,0,0,1-5.62,1.26h-3.22a9.92,9.92,0,0,1-4.84-1.15,8.15,8.15,0,0,1-3.28-3.2,9.14,9.14,0,0,1-1.15-4.58v-12a.9.9,0,0,1,.26-.67.93.93,0,0,1,.65-.24h2.72a.85.85,0,0,1,.91.91l.11,9.91a5,5,0,0,0,3.79-1.7A6.69,6.69,0,0,0,618,448.4v-4.13a.93.93,0,0,1,.27-.68.9.9,0,0,1,.64-.26h2.73a.88.88,0,0,1,.64.26.93.93,0,0,1,.27.68v4.24a9,9,0,0,1-2.27,6.4,9.75,9.75,0,0,1-6.59,2.76,5.63,5.63,0,0,0,2.14,2.58,6,6,0,0,0,3.27.9h1.06a7.7,7.7,0,0,0,3.81-.83,6,6,0,0,0,2.51-2.46,7.44,7.44,0,0,0,.87-3.63v-10a.87.87,0,0,1,.27-.67.91.91,0,0,1,.64-.24H631A.92.92,0,0,1,631.63,443.57Z"/></g><text class="cls-5" transform="translate(831.55 164.34)"><tspan xml:space="preserve"> סנכ</tspan></text><g class="cls-3"><path class="cls-4" d="M261.28,445.62c1.66,1.52,2.5,3.84,2.5,6.94V464a.92.92,0,0,1-.25.64.85.85,0,0,1-.66.27h-3a.92.92,0,0,1-.91-.91V452.75q0-5.37-5.41-5.37H251a25.69,25.69,0,0,0-.53,3.18,26.51,26.51,0,0,0-.12,3.33l.19,10.14a.91.91,0,0,1-.24.64.87.87,0,0,1-.67.27l-6.66,0A.9.9,0,0,1,242,464v-2.08a.84.84,0,0,1,.27-.66.87.87,0,0,1,.64-.25l3,0v-7a33,33,0,0,1,.1-3.43,20.16,20.16,0,0,1,.55-3.19H244.4a.9.9,0,0,1-.91-.91v-2.23a.9.9,0,0,1,.26-.67,1,1,0,0,1,.65-.24h9.35Q258.78,443.33,261.28,445.62Z"/><path class="cls-4" d="M269,464.67a.85.85,0,0,1-.27-.64V444.24a.87.87,0,0,1,.27-.67.91.91,0,0,1,.64-.24h3.22a.9.9,0,0,1,.64.26.88.88,0,0,1,.27.65V464a.85.85,0,0,1-.27.64.87.87,0,0,1-.64.27h-3.22A.85.85,0,0,1,269,464.67Z"/><path class="cls-4" d="M287.39,465.2a.85.85,0,0,1-.3-.68v-2.76a1,1,0,0,1,.25-.64,1.39,1.39,0,0,1,.66-.46l1.32-.53a6.62,6.62,0,0,0,4.58-7.08,9.24,9.24,0,0,0-.47-3.27,3.13,3.13,0,0,0-1.59-1.72,7.4,7.4,0,0,0-3.09-.53H279.9a.9.9,0,0,1-.91-.91V444.2a.86.86,0,0,1,.26-.63,1,1,0,0,1,.65-.24h9.72c3.36,0,5.74.77,7.16,2.31s2.12,4,2.12,7.38a11.16,11.16,0,0,1-2.61,7.72,14.17,14.17,0,0,1-6.67,4.12l-1.55.49A.66.66,0,0,1,287.39,465.2Zm-8.14,6.72a.87.87,0,0,1-.26-.66V452.15a.9.9,0,0,1,.26-.67,1,1,0,0,1,.65-.24h3a.85.85,0,0,1,.91.91v19.11a.86.86,0,0,1-.25.66.9.9,0,0,1-.66.25h-3A1,1,0,0,1,279.25,471.92Z"/><path class="cls-4" d="M320.21,443.59a.91.91,0,0,1,.26.65v2.23a.9.9,0,0,1-.91.91h-2a4.71,4.71,0,0,0-.76,1.85,12.4,12.4,0,0,0-.26,2.69v12.19a.71.71,0,0,1-.31.58,1,1,0,0,1-.68.25h-3a.79.79,0,0,1-.84-.83V451.58q0-3,.87-4.2H303a.88.88,0,0,1-.65-.27.84.84,0,0,1-.26-.64v-2.23a.87.87,0,0,1,.26-.67.93.93,0,0,1,.65-.24h16.57A.92.92,0,0,1,320.21,443.59Z"/></g><text class="cls-6" transform="translate(286.78 371.32)">:</text><text class="cls-6" transform="translate(598.99 371.33)">:</text></svg>