<svg preserveAspectRatio="none" id="Layer_1" data-name="Layer 1" xmlns="http://www.w3.org/2000/svg" xmlns:xlink="http://www.w3.org/1999/xlink" viewBox="0 0 104.01 154.36"><defs><style>.cls-1,.cls-3,.cls-4{fill:none;}.cls-2{clip-path:url(#clip-path);}.cls-3,.cls-4{stroke:#39b8d9;stroke-miterlimit:10;stroke-width:7px;}.cls-4{stroke-linecap:round;}.cls-5{clip-path:url(#clip-path-2);}</style><clipPath id="clip-path"><path class="cls-1" d="M55,120.93H93.49v20.92H104V94.63H62.68V59.57H40.1V118.4H20.27l-.45,23,31.12.44Z"/></clipPath><clipPath id="clip-path-2"><path class="cls-1" d="M51.56,0a51.56,51.56,0,0,0-7,102.64V65.47A9.18,9.18,0,0,1,51.9,61.9a9.08,9.08,0,0,1,6.64,3.42v37.32A51.56,51.56,0,0,0,51.56,0Z"/></clipPath></defs><g class="cls-2"><path class="cls-3" d="M79.47,99.83a7,7,0,0,0-7,7,7,7,0,1,0-14,0V69.7a7,7,0,1,0-14,0v65.49q-3.77-4.77-7.52-9.53a7,7,0,1,0-12.69,6L37.42,149a6.1,6.1,0,0,0,6.39,1.48A6,6,0,0,0,47,147.3a7,7,0,0,0,11.4-5.45,7,7,0,0,0,14,0,7,7,0,1,0,14,0v-35A7,7,0,0,0,79.47,99.83Z"/><path class="cls-3" d="M93.49,99.83a7,7,0,0,0-7,7v35a7.19,7.19,0,0,0,2.06,5,7,7,0,0,0,12-5v-35A7,7,0,0,0,93.49,99.83Z"/><line class="cls-3" x1="72.46" y1="106.85" x2="72.46" y2="141.85"/><line class="cls-3" x1="58.43" y1="106.85" x2="58.43" y2="141.85"/></g><line class="cls-4" x1="58.43" y1="121.82" x2="58.43" y2="118.25"/><line class="cls-4" x1="72.49" y1="121.82" x2="72.49" y2="118.25"/><line class="cls-4" x1="100.49" y1="142.05" x2="100.49" y2="138.49"/><line class="cls-4" x1="32.63" y1="142.72" x2="30.49" y2="139.88"/><line class="cls-4" x1="86.45" y1="121.82" x2="86.45" y2="118.25"/><g class="cls-5"><circle class="cls-3" cx="51.56" cy="51.32" r="12.18"/><circle class="cls-3" cx="51.56" cy="51.32" r="27.18"/></g></svg>