<svg id="Layer_1" data-name="Layer 1" xmlns="http://www.w3.org/2000/svg" xmlns:xlink="http://www.w3.org/1999/xlink" viewBox="0 0 170.04 205.09"><defs><style>.cls-1,.cls-3,.cls-4{fill:none;}.cls-2{clip-path:url(#clip-path);}.cls-3,.cls-4{stroke:#39b8d9;stroke-miterlimit:10;stroke-width:7px;}.cls-4{stroke-linecap:round;}.cls-5{clip-path:url(#clip-path-2);}.cls-6{isolation:isolate;font-size:50px;fill:#39b8d9;font-family:OpenSansHebrew-Bold, Open Sans Hebrew;font-weight:700;}</style><clipPath id="clip-path"><path class="cls-1" d="M78.32,108.08H116.8V129h10.49V81.78H86V46.72H63.41v58.83H43.57q-.21,11.52-.44,23l31.12.44Z"/></clipPath><clipPath id="clip-path-2"><path class="cls-1" d="M74.87-12.85a51.56,51.56,0,0,0-7,102.64V52.62a8.71,8.71,0,0,1,14-.15V89.79a51.56,51.56,0,0,0-7-102.64Z"/></clipPath></defs><title>signup_icon</title><g class="cls-2"><path class="cls-3" d="M102.78,87a7,7,0,0,0-7,7h0a7,7,0,0,0-14,0h0V56.85a7,7,0,0,0-14,0v65.49l-7.52-9.53a7,7,0,1,0-12.69,6l13.22,17.38a5.77,5.77,0,0,0,9.61-1.71A7,7,0,0,0,81.74,129a7,7,0,0,0,14,0,7,7,0,0,0,14,0V94A7,7,0,0,0,102.78,87Z"/><path class="cls-3" d="M116.8,87a7,7,0,0,0-7,7h0v35a7.19,7.19,0,0,0,2.06,4.95,7,7,0,0,0,12-4.95V94a7,7,0,0,0-7-7Z"/><line class="cls-3" x1="95.77" y1="93.99" x2="95.77" y2="129"/><line class="cls-3" x1="81.74" y1="93.99" x2="81.74" y2="129"/></g><line class="cls-4" x1="81.74" y1="108.97" x2="81.74" y2="105.4"/><line class="cls-4" x1="95.79" y1="108.97" x2="95.79" y2="105.4"/><line class="cls-4" x1="123.8" y1="129.2" x2="123.8" y2="125.63"/><line class="cls-4" x1="55.94" y1="129.87" x2="53.8" y2="127.02"/><line class="cls-4" x1="109.76" y1="108.97" x2="109.76" y2="105.4"/><g class="cls-5"><circle class="cls-3" cx="74.87" cy="38.47" r="12.18"/><circle class="cls-3" cx="74.87" cy="38.47" r="27.18"/></g><text class="cls-6" transform="translate(2.13 188.36)">המשרה</text></svg>