<svg id="Layer_1" data-name="Layer 1" xmlns="http://www.w3.org/2000/svg" viewBox="0 0 283.79 238.58"><defs><style>.cls-1{font-size:50px;font-family:OpenSansHebrew-Bold, Open Sans Hebrew;font-weight:700;}.cls-1,.cls-2,.cls-4{fill:#39b8d9;}.cls-2,.cls-3,.cls-5{stroke:#39b8d9;stroke-miterlimit:10;}.cls-2{stroke-width:10.18px;}.cls-3,.cls-5{fill:none;stroke-width:7px;}.cls-5{stroke-linecap:round;}</style></defs><text class="cls-1" transform="translate(92.44 222.32)">טווינ</text><circle class="cls-2" cx="111.41" cy="146.38" r="11.7"/><circle class="cls-2" cx="170.77" cy="146.38" r="11.7"/><path class="cls-3" d="M66.09,107.47a6.53,6.53,0,0,0-1.89,4.93,8.06,8.06,0,0,0,2.6,5.2,85.28,85.28,0,0,0,31.3,20.09c16.31,5.27,29.65,5.67,40.19,5.91,11.09.24,20.8.46,32.44-2.82,9.34-2.63,33.68-9.48,45.12-33.15,10.89-22.54,2.46-44.55,1-48.12-6.49-16-18-24.58-22.9-28.08a70.14,70.14,0,0,0-36.18-13.06,70.91,70.91,0,0,0-36,7.37c-6.33,3-17.49,8.33-25.57,20.36a57.76,57.76,0,0,0-7.37,16c-6.15,20.07-1.29,36.79-8.66,41.16a23.57,23.57,0,0,1-6.07,2.6C69.55,107,67.93,105.88,66.09,107.47Z"/><circle class="cls-4" cx="172.82" cy="66.01" r="7.91"/><circle class="cls-4" cx="133.99" cy="66.01" r="7.91"/><path class="cls-5" d="M128.32,89.11a27.84,27.84,0,0,0,51,.16"/></svg>